<?xml version="1.0" encoding="UTF-8"?>
<svg xmlns="http://www.w3.org/2000/svg" xmlns:xlink="http://www.w3.org/1999/xlink" width="50pt" height="50pt" viewBox="0 0 50 50" version="1.1">
<g id="surface1">
<path style=" stroke:none;fill-rule:nonzero;fill:#FFFFFF;fill-opacity:1;" d="M 24.722656 2.976563 C 14.230469 2.976563 8.53125 8.210938 7.308594 18.972656 L 3.308594 25.859375 C 2.972656 26.46875 2.886719 27.167969 3.070313 27.824219 C 3.253906 28.496094 3.691406 29.046875 4.34375 29.40625 L 7.363281 30.914063 L 8.332031 37.640625 C 8.734375 40.15625 11.023438 42.757813 13.855469 42.660156 L 16.863281 42.660156 L 16.863281 46.628906 L 36.707031 46.628906 L 36.707031 40.273438 C 36.707031 37.433594 37.667969 34.558594 39.480469 31.972656 C 39.800781 31.523438 40.078125 31.039063 40.335938 30.539063 C 41.089844 30.199219 41.667969 29.480469 41.667969 28.585938 L 41.667969 22.273438 C 41.667969 21.667969 41.847656 21.289063 42.226563 20.816406 C 42.601563 20.347656 43.195313 19.839844 43.84375 19.214844 C 45.148438 17.953125 46.628906 16.058594 46.628906 12.808594 C 46.628906 7.382813 42.167969 2.976563 36.707031 2.976563 C 34.980469 2.976563 33.355469 3.417969 31.9375 4.191406 C 29.855469 3.421875 27.464844 2.976563 24.722656 2.976563 Z M 36.707031 4.960938 C 41.109375 4.960938 44.644531 8.46875 44.644531 12.808594 C 44.644531 15.507813 43.644531 16.652344 42.464844 17.789063 C 41.875 18.355469 41.230469 18.886719 40.675781 19.582031 C 40.121094 20.273438 39.683594 21.1875 39.683594 22.273438 L 39.683594 24.800781 L 37.699219 24.800781 L 37.699219 16.285156 L 40.382813 13.597656 C 40.644531 13.351563 40.75 12.976563 40.65625 12.632813 C 40.566406 12.285156 40.292969 12.011719 39.945313 11.925781 C 39.601563 11.832031 39.230469 11.9375 38.980469 12.195313 L 36.707031 14.46875 L 34.429688 12.195313 C 34.246094 12 33.988281 11.898438 33.71875 11.894531 C 33.316406 11.898438 32.957031 12.140625 32.800781 12.511719 C 32.648438 12.890625 32.738281 13.316406 33.027344 13.597656 L 35.714844 16.285156 L 35.714844 24.800781 L 33.730469 24.800781 L 33.730469 22.273438 C 33.730469 21.292969 33.257813 20.484375 32.714844 19.855469 C 32.171875 19.230469 31.546875 18.703125 30.96875 18.109375 C 29.804688 16.917969 28.769531 15.578125 28.769531 12.804688 C 28.769531 8.464844 32.304688 4.960938 36.707031 4.960938 Z M 33.730469 26.785156 L 39.683594 26.785156 L 39.683594 28.585938 C 39.683594 28.738281 39.648438 28.769531 39.398438 28.769531 L 34.011719 28.769531 C 33.761719 28.769531 33.730469 28.738281 33.730469 28.585938 Z M 34.988281 30.753906 L 38.417969 30.753906 C 38.183594 31.160156 37.804688 31.476563 37.347656 31.632813 C 37.320313 31.640625 37.292969 31.648438 37.265625 31.65625 C 37.085938 31.707031 36.898438 31.746094 36.707031 31.746094 C 36.511719 31.746094 36.328125 31.707031 36.148438 31.65625 C 36.121094 31.648438 36.09375 31.640625 36.066406 31.632813 C 35.605469 31.476563 35.226563 31.160156 34.988281 30.753906 Z "/>
</g>
</svg>
