<?xml version="1.0" encoding="UTF-8"?>
<svg xmlns="http://www.w3.org/2000/svg" xmlns:xlink="http://www.w3.org/1999/xlink" width="50pt" height="50pt" viewBox="0 0 50 50" version="1.1">
<g id="surface1">
<path style=" stroke:none;fill-rule:nonzero;fill:#FFFFFF;fill-opacity:1;" d="M 24.800781 1.953125 C 24.300781 1.957031 23.796875 2.089844 23.34375 2.347656 C 2.019531 15.320313 2.023438 15.804688 1.984375 16.46875 C 1.96875 16.75 2.5 17.332031 3.953125 18.648438 C 3.941406 18.714844 3.933594 18.785156 3.9375 18.847656 C 3.9375 21.886719 3.945313 29.386719 3.949219 31.03125 C 3.347656 31.390625 2.976563 32.035156 2.976563 32.738281 C 2.976563 32.964844 3.019531 33.195313 3.097656 33.414063 C 2.425781 33.953125 1.984375 34.765625 1.984375 35.683594 C 1.984375 36.855469 2.59375 37.847656 3.121094 38.726563 C 3.648438 39.605469 4.171875 40.285156 4.171875 40.285156 C 4.359375 40.53125 4.648438 40.675781 4.957031 40.675781 C 5.261719 40.675781 5.554688 40.535156 5.742188 40.292969 C 5.742188 40.292969 6.269531 39.621094 6.800781 38.75 C 7.332031 37.871094 7.9375 36.863281 7.9375 35.683594 C 7.9375 34.765625 7.496094 33.953125 6.824219 33.414063 C 6.902344 33.195313 6.945313 32.964844 6.945313 32.738281 C 6.945313 32.046875 6.585938 31.410156 6 31.046875 C 5.996094 29.636719 5.992188 24.164063 5.988281 20.445313 C 7.316406 21.625 8.355469 22.550781 10.914063 24.800781 L 10.914063 17.855469 C 10.914063 17.855469 16.164063 14.882813 24.800781 14.882813 C 33.441406 14.882813 38.691406 17.855469 38.691406 17.855469 L 38.691406 24.800781 C 45.511719 18.769531 47.648438 17 47.617188 16.464844 C 47.582031 15.800781 47.585938 15.320313 26.238281 2.339844 C 25.796875 2.082031 25.296875 1.953125 24.800781 1.953125 Z M 38.691406 24.800781 C 38.664063 24.824219 38.511719 24.769531 38.265625 24.660156 C 37.933594 24.554688 37.402344 24.394531 36.707031 24.214844 L 36.707031 26.898438 L 37.808594 26.78125 C 37.8125 26.78125 38.566406 26.71875 39.089844 27.1875 C 39.480469 27.542969 39.683594 28.144531 39.683594 28.992188 C 39.683594 30.242188 38.902344 31.617188 37.59375 31.75 L 36.988281 31.8125 L 36.773438 32.382813 C 33.378906 41.175781 29.351563 45.636719 24.804688 45.636719 C 24.804688 45.636719 24.800781 45.636719 24.800781 45.636719 C 24.800781 45.636719 24.796875 45.636719 24.796875 45.636719 C 20.253906 45.636719 16.226563 41.175781 12.832031 32.382813 L 12.613281 31.8125 L 12.007813 31.75 C 10.699219 31.617188 9.921875 30.242188 9.921875 28.992188 C 9.921875 28.152344 10.113281 27.554688 10.5 27.195313 C 11.019531 26.71875 11.796875 26.78125 11.796875 26.78125 L 12.898438 26.898438 L 12.898438 24.214844 C 12.164063 24.40625 11.617188 24.570313 11.292969 24.671875 C 11.070313 24.773438 10.941406 24.824219 10.914063 24.800781 L 10.914063 24.871094 C 10.386719 24.976563 9.75 25.207031 9.1875 25.710938 C 8.359375 26.457031 7.9375 27.5625 7.9375 28.992188 C 7.9375 31.222656 9.292969 33.101563 11.179688 33.609375 C 14.867188 42.90625 19.445313 47.617188 24.796875 47.617188 C 24.796875 47.617188 24.800781 47.617188 24.800781 47.617188 C 24.800781 47.617188 24.804688 47.617188 24.804688 47.617188 C 30.15625 47.617188 34.734375 42.90625 38.421875 33.609375 C 40.308594 33.097656 41.667969 31.222656 41.667969 28.992188 C 41.667969 27.5625 41.246094 26.457031 40.414063 25.710938 C 39.851563 25.207031 39.21875 24.976563 38.691406 24.871094 Z M 12.898438 24.214844 C 15.1875 23.636719 19.355469 22.816406 24.800781 22.816406 C 30.25 22.816406 34.417969 23.632813 36.707031 24.214844 L 36.707031 19.113281 C 34.882813 18.332031 30.664063 16.863281 24.800781 16.863281 C 18.890625 16.863281 14.710938 18.324219 12.898438 19.105469 Z M 4.960938 34.722656 C 5.53125 34.722656 5.953125 35.152344 5.953125 35.683594 C 5.953125 35.964844 5.566406 36.953125 5.105469 37.714844 C 5.035156 37.832031 5.035156 37.816406 4.964844 37.917969 C 4.894531 37.808594 4.890625 37.824219 4.816406 37.703125 C 4.351563 36.933594 3.96875 35.925781 3.96875 35.683594 C 3.96875 35.152344 4.390625 34.722656 4.960938 34.722656 Z "/>
</g>
</svg>
