<?xml version="1.0" encoding="UTF-8"?>
<svg xmlns="http://www.w3.org/2000/svg" xmlns:xlink="http://www.w3.org/1999/xlink" width="50pt" height="50pt" viewBox="0 0 50 50" version="1.1">
<g id="surface1">
<path style=" stroke:none;fill-rule:nonzero;fill:#FFFFFF;fill-opacity:1;" d="M 19.71875 3.347656 C 16.066406 3.414063 13.402344 4.535156 11.78125 6.664063 C 9.863281 9.191406 9.515625 13.039063 10.726563 18.074219 C 10.28125 18.621094 9.945313 19.449219 10.074219 20.554688 C 10.339844 22.738281 11.1875 23.640625 11.90625 23.996094 C 12.246094 25.710938 13.195313 27.640625 14.105469 28.554688 L 14.105469 29.019531 C 14.113281 30.023438 14.109375 30.898438 14.011719 32.023438 C 13.40625 33.421875 11.386719 34.238281 9.050781 35.15625 C 5.175781 36.679688 0.359375 38.566406 0 44.582031 L -0.0625 45.636719 L 39.746094 45.636719 L 39.683594 44.582031 C 39.320313 38.5625 34.523438 36.679688 30.660156 35.15625 C 28.339844 34.238281 26.304688 33.421875 25.699219 32.023438 C 25.605469 30.902344 25.632813 30.027344 25.636719 29.019531 L 25.636719 28.554688 C 26.101563 28.082031 26.550781 27.320313 26.941406 26.476563 C 27.3125 26.855469 27.695313 27.226563 28.117188 27.5625 C 28.179688 27.640625 28.253906 27.714844 28.335938 27.777344 C 28.390625 27.816406 28.4375 27.863281 28.492188 27.902344 C 28.523438 27.925781 28.554688 27.941406 28.582031 27.964844 C 28.566406 28.117188 28.609375 28.125 28.523438 28.460938 C 28.347656 29.109375 27.992188 30.042969 27.25 31.09375 C 27.046875 31.398438 27.023438 31.789063 27.191406 32.109375 C 27.359375 32.4375 27.691406 32.640625 28.058594 32.644531 C 31.378906 32.660156 33.214844 30.742188 33.761719 30.132813 C 34.714844 30.332031 35.6875 30.476563 36.707031 30.476563 C 43.742188 30.476563 49.601563 25.519531 49.601563 19.222656 C 49.601563 13.066406 43.988281 8.253906 37.171875 8.03125 C 37.152344 8.019531 37.128906 8.007813 37.109375 8 C 37.097656 8 37.089844 8 37.078125 8 C 37.046875 7.988281 37.015625 7.976563 36.984375 7.96875 C 36.914063 7.949219 36.84375 7.941406 36.769531 7.9375 C 36.75 7.9375 36.726563 7.9375 36.707031 7.9375 C 35.199219 7.9375 33.777344 8.199219 32.429688 8.617188 C 32.332031 8.648438 32.214844 8.648438 32.117188 8.679688 C 32.050781 8.703125 31.996094 8.75 31.933594 8.773438 C 31.761719 8.835938 31.570313 8.863281 31.40625 8.929688 C 31.234375 8.992188 31.082031 9.097656 30.972656 9.238281 C 30.488281 9.453125 30.027344 9.6875 29.574219 9.953125 C 29.398438 9.175781 29.121094 8.417969 28.707031 7.75 C 27.855469 6.378906 26.5625 5.515625 24.863281 5.175781 C 23.925781 3.996094 22.128906 3.347656 19.71875 3.347656 Z M 36.707031 9.921875 C 36.738281 9.921875 36.769531 9.921875 36.800781 9.921875 C 42.863281 9.964844 47.617188 14.1875 47.617188 19.222656 C 47.617188 24.277344 42.816406 28.492188 36.707031 28.492188 C 35.664063 28.492188 34.652344 28.382813 33.699219 28.148438 C 33.320313 28.054688 32.921875 28.183594 32.675781 28.492188 C 32.675781 28.492188 31.582031 29.769531 29.761719 30.351563 C 29.953125 29.90625 30.316406 29.34375 30.414063 28.988281 C 30.640625 28.136719 30.660156 27.5 30.660156 27.5 C 30.660156 27.15625 30.484375 26.84375 30.195313 26.660156 C 30.050781 26.570313 29.902344 26.480469 29.761719 26.382813 C 29.730469 26.359375 29.699219 26.339844 29.667969 26.320313 C 29.667969 26.308594 29.667969 26.300781 29.667969 26.289063 C 28.898438 25.730469 28.246094 25.074219 27.683594 24.367188 C 27.714844 24.242188 27.753906 24.121094 27.777344 23.996094 C 28.496094 23.640625 29.34375 22.738281 29.605469 20.554688 C 29.738281 19.472656 29.421875 18.652344 28.988281 18.105469 C 29.34375 16.886719 29.941406 14.472656 29.855469 12.027344 C 30.617188 11.503906 31.480469 11.066406 32.398438 10.726563 C 33.71875 10.238281 35.167969 9.921875 36.707031 9.921875 Z "/>
</g>
</svg>
