<?xml version="1.0" encoding="UTF-8"?>
<svg xmlns="http://www.w3.org/2000/svg" xmlns:xlink="http://www.w3.org/1999/xlink" width="50pt" height="50pt" viewBox="0 0 50 50" version="1.1">
<g id="surface1">
<path style=" stroke:none;fill-rule:nonzero;fill:#FFFFFF;fill-opacity:1;" d="M 24.800781 1.992188 C 12.210938 1.992188 1.984375 12.21875 1.984375 24.808594 C 1.984375 36.820313 11.292969 46.667969 23.078125 47.558594 C 23.097656 47.558594 23.121094 47.5625 23.144531 47.5625 C 23.691406 47.601563 24.242188 47.625 24.800781 47.625 C 25.359375 47.625 25.910156 47.601563 26.460938 47.5625 C 26.484375 47.5625 26.507813 47.558594 26.527344 47.558594 C 38.3125 46.667969 47.617188 36.820313 47.617188 24.808594 C 47.617188 12.21875 37.390625 1.992188 24.800781 1.992188 Z M 24.800781 3.976563 C 36.320313 3.976563 45.636719 13.292969 45.636719 24.808594 C 45.636719 30.496094 43.355469 35.640625 39.671875 39.394531 C 38.097656 38.25 36.148438 37.5625 34.402344 36.949219 C 32.335938 36.226563 30.378906 35.539063 29.839844 34.347656 C 29.75 33.328125 29.757813 32.53125 29.765625 31.617188 L 29.769531 31.230469 C 30.648438 30.394531 31.757813 28.621094 32.136719 26.988281 C 32.792969 26.636719 33.59375 25.800781 33.835938 23.796875 C 33.949219 22.800781 33.667969 22.03125 33.273438 21.515625 C 33.808594 19.675781 34.875 15.015625 33.003906 12.007813 C 32.21875 10.738281 31.023438 9.9375 29.460938 9.617188 C 28.578125 8.53125 26.917969 7.9375 24.695313 7.9375 C 21.324219 8 18.851563 9.035156 17.347656 11.003906 C 15.582031 13.339844 15.25 16.859375 16.355469 21.484375 C 15.945313 22 15.652344 22.78125 15.773438 23.792969 C 16.011719 25.800781 16.8125 26.636719 17.464844 26.988281 C 17.84375 28.621094 18.949219 30.394531 19.832031 31.230469 L 19.835938 31.605469 C 19.84375 32.523438 19.851563 33.324219 19.765625 34.347656 C 19.222656 35.542969 17.257813 36.238281 15.179688 36.96875 C 13.441406 37.582031 11.507813 38.269531 9.9375 39.402344 C 6.246094 35.644531 3.96875 30.5 3.96875 24.808594 C 3.96875 13.292969 13.285156 3.976563 24.800781 3.976563 Z "/>
</g>
</svg>
